<mxfile host="app.diagrams.net" modified="2024-05-07T09:54:22.283Z" agent="Mozilla/5.0 (Windows NT 10.0; Win64; x64) AppleWebKit/537.36 (KHTML, like Gecko) Chrome/124.0.0.0 Safari/537.36 Edg/124.0.0.0" etag="Y3AXQr3m2JaIsC_-BV3_" version="24.3.1" type="github">
  <diagram name="Page-1" id="r61nBLuVa7q-FtQbBsYS">
    <mxGraphModel dx="1386" dy="785" grid="1" gridSize="10" guides="1" tooltips="1" connect="1" arrows="1" fold="1" page="1" pageScale="1" pageWidth="850" pageHeight="1100" math="0" shadow="0">
      <root>
        <mxCell id="0" />
        <mxCell id="1" parent="0" />
        <mxCell id="1Z24QNDZRmySYP2qOGlL-2" value="xs.multicode.nl&lt;div&gt;&lt;br&gt;&lt;/div&gt;&lt;div&gt;K8s node&lt;/div&gt;" style="image;html=1;image=img/lib/clip_art/computers/Server_128x128.png" vertex="1" parent="1">
          <mxGeometry x="150" y="80" width="80" height="80" as="geometry" />
        </mxCell>
        <mxCell id="1Z24QNDZRmySYP2qOGlL-3" value="xl.multicode.nl&lt;div&gt;&lt;br&gt;&lt;/div&gt;&lt;div&gt;K8s node&lt;br&gt;&lt;/div&gt;" style="image;html=1;image=img/lib/clip_art/computers/Server_128x128.png" vertex="1" parent="1">
          <mxGeometry x="150" y="440" width="80" height="80" as="geometry" />
        </mxCell>
        <mxCell id="1Z24QNDZRmySYP2qOGlL-6" style="edgeStyle=orthogonalEdgeStyle;rounded=0;orthogonalLoop=1;jettySize=auto;html=1;exitX=0.5;exitY=0;exitDx=0;exitDy=0;entryX=0;entryY=0.5;entryDx=0;entryDy=0;" edge="1" parent="1" source="1Z24QNDZRmySYP2qOGlL-4" target="1Z24QNDZRmySYP2qOGlL-2">
          <mxGeometry relative="1" as="geometry" />
        </mxCell>
        <mxCell id="1Z24QNDZRmySYP2qOGlL-7" style="edgeStyle=orthogonalEdgeStyle;rounded=0;orthogonalLoop=1;jettySize=auto;html=1;exitX=0.5;exitY=1;exitDx=0;exitDy=0;entryX=0;entryY=0.5;entryDx=0;entryDy=0;" edge="1" parent="1" source="1Z24QNDZRmySYP2qOGlL-4" target="1Z24QNDZRmySYP2qOGlL-3">
          <mxGeometry relative="1" as="geometry" />
        </mxCell>
        <mxCell id="1Z24QNDZRmySYP2qOGlL-4" value="ms.multicode.nl&lt;br&gt;&lt;br&gt;K8s master node" style="image;html=1;image=img/lib/clip_art/computers/Server_128x128.png" vertex="1" parent="1">
          <mxGeometry x="20" y="260" width="80" height="80" as="geometry" />
        </mxCell>
        <mxCell id="1Z24QNDZRmySYP2qOGlL-8" style="edgeStyle=orthogonalEdgeStyle;rounded=0;orthogonalLoop=1;jettySize=auto;html=1;exitX=0;exitY=0.75;exitDx=0;exitDy=0;entryX=1;entryY=0.5;entryDx=0;entryDy=0;" edge="1" parent="1" source="1Z24QNDZRmySYP2qOGlL-5" target="1Z24QNDZRmySYP2qOGlL-3">
          <mxGeometry relative="1" as="geometry" />
        </mxCell>
        <mxCell id="1Z24QNDZRmySYP2qOGlL-5" value="ha.multicode.nl&lt;br&gt;&lt;br&gt;Load balancer" style="image;html=1;image=img/lib/clip_art/computers/Server_128x128.png" vertex="1" parent="1">
          <mxGeometry x="440" y="270" width="80" height="80" as="geometry" />
        </mxCell>
        <mxCell id="1Z24QNDZRmySYP2qOGlL-9" style="edgeStyle=orthogonalEdgeStyle;rounded=0;orthogonalLoop=1;jettySize=auto;html=1;exitX=0;exitY=0.5;exitDx=0;exitDy=0;entryX=1;entryY=0.425;entryDx=0;entryDy=0;entryPerimeter=0;" edge="1" parent="1" source="1Z24QNDZRmySYP2qOGlL-5" target="1Z24QNDZRmySYP2qOGlL-2">
          <mxGeometry relative="1" as="geometry" />
        </mxCell>
        <mxCell id="1Z24QNDZRmySYP2qOGlL-11" style="edgeStyle=orthogonalEdgeStyle;rounded=0;orthogonalLoop=1;jettySize=auto;html=1;exitX=0;exitY=0.5;exitDx=0;exitDy=0;entryX=1;entryY=0.5;entryDx=0;entryDy=0;" edge="1" parent="1" source="1Z24QNDZRmySYP2qOGlL-10" target="1Z24QNDZRmySYP2qOGlL-5">
          <mxGeometry relative="1" as="geometry" />
        </mxCell>
        <mxCell id="1Z24QNDZRmySYP2qOGlL-10" value="Internet" style="image;aspect=fixed;perimeter=ellipsePerimeter;html=1;align=center;shadow=0;dashed=0;spacingTop=3;image=img/lib/active_directory/internet_cloud.svg;" vertex="1" parent="1">
          <mxGeometry x="610" y="272.5" width="119.05" height="75" as="geometry" />
        </mxCell>
      </root>
    </mxGraphModel>
  </diagram>
</mxfile>
